<svg width="200" height="200" viewBox="0 0 200 200" fill="none" xmlns="http://www.w3.org/2000/svg">
                    <path
                        d="M179.611 33.3333C178.854 33.2553 178.091 33.2553 177.333 33.3333H21.7778C20.7808 33.3487 19.7904 33.4982 18.8333 33.7778L99.1111 113.722L179.611 33.3333Z"
                        fill="white" />
                    <path
                        d="M187.833 41.0555L106.944 121.611C104.863 123.681 102.047 124.842 99.1111 124.842C96.1757 124.842 93.3596 123.681 91.2778 121.611L11.1111 41.6667C10.8647 42.5724 10.734 43.5058 10.7222 44.4444V155.556C10.7222 158.502 11.8929 161.329 13.9766 163.412C16.0603 165.496 18.8865 166.667 21.8333 166.667H177.389C180.336 166.667 183.162 165.496 185.246 163.412C187.329 161.329 188.5 158.502 188.5 155.556V44.4444C188.456 43.287 188.231 42.1435 187.833 41.0555V41.0555ZM29.4444 155.556H21.7222V147.611L62.1111 107.556L69.9444 115.389L29.4444 155.556ZM177.278 155.556H169.5L129 115.389L136.833 107.556L177.222 147.611L177.278 155.556Z"
                        fill="white" />
                </svg>