<svg width="11" height="19" viewBox="0 0 11 19" fill="none" xmlns="http://www.w3.org/2000/svg">
                    <path
                        d="M11 1.49999C11 1.36738 10.9473 1.24021 10.8536 1.14644C10.7598 1.05267 10.6326 0.999992 10.5 0.999992H8C6.74112 0.937283 5.5086 1.37538 4.57172 2.21857C3.63485 3.06176 3.06978 4.24149 3 5.49999V8.19999H0.5C0.367392 8.19999 0.240215 8.25267 0.146447 8.34644C0.0526785 8.44021 0 8.56738 0 8.69999V11.3C0 11.4326 0.0526785 11.5598 0.146447 11.6535C0.240215 11.7473 0.367392 11.8 0.5 11.8H3V18.5C3 18.6326 3.05268 18.7598 3.14645 18.8535C3.24021 18.9473 3.36739 19 3.5 19H6.5C6.63261 19 6.75979 18.9473 6.85355 18.8535C6.94732 18.7598 7 18.6326 7 18.5V11.8H9.62C9.73119 11.8016 9.83974 11.7661 9.92848 11.6991C10.0172 11.6321 10.0811 11.5374 10.11 11.43L10.83 8.82999C10.8499 8.75611 10.8526 8.67866 10.8378 8.60358C10.8231 8.52851 10.7913 8.45782 10.7449 8.39696C10.6985 8.3361 10.6388 8.2867 10.5704 8.25255C10.5019 8.2184 10.4265 8.20042 10.35 8.19999H7V5.49999C7.02487 5.25247 7.14111 5.0231 7.32602 4.85669C7.51093 4.69027 7.75123 4.59875 8 4.59999H10.5C10.6326 4.59999 10.7598 4.54731 10.8536 4.45355C10.9473 4.35978 11 4.2326 11 4.09999V1.49999Z"
                        fill="white" />
                </svg>