<svg width="52" height="52" viewBox="0 0 52 52" fill="none" xmlns="http://www.w3.org/2000/svg">
                    <circle cx="26" cy="26" r="26" fill="black" />
                    <path
                        d="M32 18.5059C32 18.3733 31.9473 18.2461 31.8536 18.1524C31.7598 18.0586 31.6326 18.0059 31.5 18.0059H29C27.7411 17.9432 26.5086 18.3813 25.5717 19.2245C24.6348 20.0677 24.0698 21.2474 24 22.5059V25.2059H21.5C21.3674 25.2059 21.2402 25.2586 21.1464 25.3524C21.0527 25.4461 21 25.5733 21 25.7059V28.3059C21 28.4385 21.0527 28.5657 21.1464 28.6595C21.2402 28.7532 21.3674 28.8059 21.5 28.8059H24V35.5059C24 35.6385 24.0527 35.7657 24.1464 35.8595C24.2402 35.9532 24.3674 36.0059 24.5 36.0059H27.5C27.6326 36.0059 27.7598 35.9532 27.8536 35.8595C27.9473 35.7657 28 35.6385 28 35.5059V28.8059H30.62C30.7312 28.8075 30.8397 28.772 30.9285 28.705C31.0172 28.638 31.0811 28.5433 31.11 28.4359L31.83 25.8359C31.8499 25.762 31.8526 25.6846 31.8378 25.6095C31.8231 25.5344 31.7913 25.4637 31.7449 25.4029C31.6985 25.342 31.6388 25.2926 31.5704 25.2585C31.5019 25.2243 31.4265 25.2063 31.35 25.2059H28V22.5059C28.0249 22.2584 28.1411 22.029 28.326 21.8626C28.5109 21.6962 28.7512 21.6047 29 21.6059H31.5C31.6326 21.6059 31.7598 21.5532 31.8536 21.4595C31.9473 21.3657 32 21.2385 32 21.1059V18.5059Z"
                        fill="white" />
                </svg>