<svg width="52" height="52" viewBox="0 0 52 52" fill="none" xmlns="http://www.w3.org/2000/svg">
                    <circle cx="26" cy="26" r="26" fill="black" />
                    <path
                        d="M26.0012 15C19.923 14.9975 15 20.0519 15 26.2903C15 31.2235 18.0797 35.417 22.3686 36.9571C22.9462 37.106 22.8577 36.6844 22.8577 36.3966V34.44C19.5224 34.8414 19.3872 32.5742 19.1636 32.1955C18.7113 31.4028 17.6422 31.2008 17.9617 30.8221C18.7211 30.4207 19.4954 30.9231 20.3925 32.2839C21.0413 33.2711 22.3071 33.1044 22.9486 32.9403C23.0887 32.347 23.3886 31.8168 23.8015 31.4053C20.3458 30.7691 18.9055 28.6029 18.9055 26.0278C18.9055 24.7781 19.3061 23.6293 20.0926 22.7028C19.5912 21.1754 20.1393 19.8676 20.213 19.6732C21.641 19.5419 23.1256 20.7234 23.2411 20.8168C24.0522 20.5922 24.9788 20.4735 26.016 20.4735C27.0581 20.4735 27.9872 20.5972 28.8056 20.8244C29.0833 20.6073 30.4597 19.5924 31.787 19.7161C31.8582 19.9105 32.394 21.188 31.9221 22.6952C32.7185 23.6243 33.124 24.7831 33.124 26.0353C33.124 28.6156 31.6739 30.7843 28.2084 31.4104C28.5052 31.7102 28.7409 32.0678 28.9017 32.4623C29.0624 32.8568 29.1451 33.2802 29.1448 33.7078V36.5481C29.1645 36.7753 29.1448 37 29.5135 37C33.8663 35.4928 37 31.269 37 26.2929C37 20.0519 32.0745 15 26.0012 15V15Z"
                        fill="white" />
                </svg>