<svg width="176" height="172" viewBox="0 0 176 172" fill="none" xmlns="http://www.w3.org/2000/svg">
                    <path
                        d="M87.9219 0.902351C39.6211 0.88282 0.5 39.9844 0.5 88.2461C0.5 126.41 24.9727 158.852 59.0547 170.766C63.6445 171.918 62.9414 168.656 62.9414 166.43V151.293C36.4375 154.398 35.3633 136.859 33.5859 133.93C29.9922 127.797 21.4961 126.234 24.0352 123.305C30.0703 120.199 36.2227 124.086 43.3516 134.613C48.5078 142.25 58.5664 140.961 63.6641 139.691C64.7773 135.102 67.1602 131 70.4414 127.816C42.9805 122.895 31.5352 106.137 31.5352 86.2149C31.5352 76.5469 34.7188 67.6602 40.9688 60.4922C36.9844 48.6758 41.3398 38.5586 41.9258 37.0547C53.2734 36.0391 65.0703 45.1797 65.9883 45.9024C72.4336 44.1641 79.7969 43.2461 88.0391 43.2461C96.3203 43.2461 103.703 44.2031 110.207 45.9609C112.414 44.2813 123.352 36.4297 133.898 37.3867C134.465 38.8906 138.723 48.7735 134.973 60.4336C141.301 67.6211 144.523 76.586 144.523 86.2735C144.523 106.234 133 123.012 105.461 127.855C107.82 130.175 109.693 132.942 110.97 135.993C112.248 139.045 112.905 142.321 112.902 145.629V167.602C113.059 169.359 112.902 171.098 115.832 171.098C150.422 159.438 175.324 126.762 175.324 88.2656C175.324 39.9844 136.184 0.902351 87.9219 0.902351Z"
                        fill="white" />
                </svg>