<svg width="52" height="52" viewBox="0 0 52 52" fill="none" xmlns="http://www.w3.org/2000/svg">
                    <circle cx="26" cy="26" r="26" fill="black" />
                    <path fill-rule="evenodd" clip-rule="evenodd"
                        d="M23.429 21.969H27.143V23.819C27.678 22.755 29.05 21.799 31.111 21.799C35.062 21.799 36 23.917 36 27.803V35H32V28.688C32 26.475 31.465 25.227 30.103 25.227C28.214 25.227 27.429 26.572 27.429 28.687V35H23.429V21.969ZM16.57 34.83H20.57V21.799H16.57V34.83ZM21.143 17.55C21.1431 17.8853 21.0767 18.2172 20.9474 18.5266C20.8181 18.8359 20.6287 19.1165 20.39 19.352C19.9064 19.8326 19.2518 20.1017 18.57 20.1C17.8894 20.0995 17.2363 19.8312 16.752 19.353C16.5142 19.1167 16.3254 18.8358 16.1963 18.5264C16.0673 18.217 16.0006 17.8852 16 17.55C16 16.873 16.27 16.225 16.753 15.747C17.2369 15.2682 17.8902 14.9997 18.571 15C19.253 15 19.907 15.269 20.39 15.747C20.872 16.225 21.143 16.873 21.143 17.55Z"
                        fill="white" />
                </svg>