<svg width="20" height="20" viewBox="0 0 46 46" fill="none"
                                xmlns="http://www.w3.org/2000/svg">
                                <path
                                    d="M43 20.5C42.337 20.5 41.7011 20.7634 41.2322 21.2322C40.7634 21.7011 40.5 22.337 40.5 23V38C40.5 38.663 40.2366 39.2989 39.7678 39.7678C39.2989 40.2366 38.663 40.5 38 40.5H8C7.33696 40.5 6.70107 40.2366 6.23223 39.7678C5.76339 39.2989 5.5 38.663 5.5 38V8C5.5 7.33696 5.76339 6.70107 6.23223 6.23223C6.70107 5.76339 7.33696 5.5 8 5.5H23C23.663 5.5 24.2989 5.23661 24.7678 4.76777C25.2366 4.29893 25.5 3.66304 25.5 3C25.5 2.33696 25.2366 1.70107 24.7678 1.23223C24.2989 0.763392 23.663 0.5 23 0.5H8C6.01088 0.5 4.10322 1.29018 2.6967 2.6967C1.29018 4.10322 0.5 6.01088 0.5 8V38C0.5 39.9891 1.29018 41.8968 2.6967 43.3033C4.10322 44.7098 6.01088 45.5 8 45.5H38C39.9891 45.5 41.8968 44.7098 43.3033 43.3033C44.7098 41.8968 45.5 39.9891 45.5 38V23C45.5 22.337 45.2366 21.7011 44.7678 21.2322C44.2989 20.7634 43.663 20.5 43 20.5Z"
                                    fill="black" alt="Data Vending Site link"/>
                                <path
                                    d="M33 5.5H36.95L21.225 21.2C20.9907 21.4324 20.8047 21.7089 20.6778 22.0136C20.5509 22.3182 20.4855 22.645 20.4855 22.975C20.4855 23.305 20.5509 23.6318 20.6778 23.9364C20.8047 24.2411 20.9907 24.5176 21.225 24.75C21.4574 24.9843 21.7339 25.1703 22.0386 25.2972C22.3432 25.4241 22.67 25.4895 23 25.4895C23.33 25.4895 23.6568 25.4241 23.9614 25.2972C24.2661 25.1703 24.5426 24.9843 24.775 24.75L40.5 9.05V13C40.5 13.663 40.7634 14.2989 41.2322 14.7678C41.7011 15.2366 42.337 15.5 43 15.5C43.663 15.5 44.2989 15.2366 44.7678 14.7678C45.2366 14.2989 45.5 13.663 45.5 13V3C45.5 2.33696 45.2366 1.70107 44.7678 1.23223C44.2989 0.763392 43.663 0.5 43 0.5H33C32.337 0.5 31.7011 0.763392 31.2322 1.23223C30.7634 1.70107 30.5 2.33696 30.5 3C30.5 3.66304 30.7634 4.29893 31.2322 4.76777C31.7011 5.23661 32.337 5.5 33 5.5V5.5Z"
                                    fill="black" />
                            </svg>