<svg width="52" height="52" viewBox="0 0 52 52" fill="none" xmlns="http://www.w3.org/2000/svg">
                    <circle cx="26" cy="26" r="26" fill="black" />
                    <path
                        d="M37.706 19.1895C36.871 19.5595 35.974 19.8095 35.031 19.9225C36.004 19.3403 36.7319 18.424 37.079 17.3445C36.1648 17.8875 35.1643 18.2697 34.121 18.4745C33.4194 17.7254 32.4901 17.2288 31.4773 17.062C30.4646 16.8951 29.4251 17.0673 28.5202 17.5518C27.6154 18.0362 26.8958 18.8059 26.4732 19.7412C26.0505 20.6766 25.9485 21.7253 26.183 22.7245C24.3307 22.6315 22.5186 22.1501 20.8644 21.3114C19.2102 20.4728 17.7508 19.2957 16.581 17.8565C16.181 18.5465 15.951 19.3465 15.951 20.1985C15.9506 20.9655 16.1394 21.7208 16.5009 22.3973C16.8623 23.0737 17.3852 23.6506 18.023 24.0765C17.2833 24.053 16.5599 23.8531 15.913 23.4935V23.5535C15.9129 24.6293 16.285 25.6719 16.9662 26.5045C17.6473 27.3371 18.5956 27.9084 19.65 28.1215C18.9638 28.3072 18.2443 28.3346 17.546 28.2015C17.8435 29.1271 18.423 29.9365 19.2034 30.5164C19.9837 31.0963 20.9259 31.4177 21.898 31.4355C20.2478 32.7309 18.2099 33.4336 16.112 33.4305C15.7404 33.4306 15.3691 33.4089 15 33.3655C17.1295 34.7347 19.6083 35.4613 22.14 35.4585C30.71 35.4585 35.395 28.3605 35.395 22.2045C35.395 22.0045 35.39 21.8025 35.381 21.6025C36.2923 20.9435 37.0789 20.1274 37.704 19.1925L37.706 19.1895Z"
                        fill="#FF0000" />
                </svg>